<svg width="52mm" height="50.004mm" version="1.1" viewBox="0 0 52 50.004" xmlns="http://www.w3.org/2000/svg"><g transform="translate(75.452 67.749)"><text x="-73.733574" y="-51.39872" fill="#ffffff" font-family="sans-serif" font-size=".70556px" stroke-width=".26458" word-spacing="0px" style="line-height:1.25" xml:space="preserve"><tspan x="-73.733574" y="-51.39872" fill="#ffffff" font-size=".70556px" stroke-width=".26458">50</tspan></text><text x="-73.733574" y="-18.061216" fill="#ffffff" font-family="sans-serif" font-size=".70556px" stroke-width=".26458" word-spacing="0px" style="line-height:1.25" xml:space="preserve"><tspan x="-73.733574" y="-18.061216" fill="#ffffff" font-size=".70556px" stroke-width=".26458">16</tspan></text><text x="-73.733574" y="-56.690388" fill="#ffffff" font-family="sans-serif" font-size=".70556px" stroke-width=".26458" word-spacing="0px" style="line-height:1.25" xml:space="preserve"><tspan x="-73.733574" y="-56.690388" fill="#ffffff" font-size=".70556px" stroke-width=".26458">y'=66-y</tspan></text><path d="m-68.906-40.414 3.939 1.8578-0.03492 0.36317h-0.25143v0.38412h0.24444l7e-3 0.29333 0.18158 0.1746-0.18025 0.6727-0.1061 0.1165-0.18158 0.10476-0.23016 0.0303-0.48322 0.27899-0.36936 0.48136-2.8632-2.6763-0.08921 0.0066-0.08889 0.14322h-0.05432l-0.12346-0.12346 0.0403-0.30608-0.19828-0.08213 0.12341-0.23404 0.0642-0.24198 0.34075-0.63212z" fill="none" stroke="#96a2ed" stroke-width=".075" name="L1"/><path d="m-68.906-40.414 1.1244-2.193 0.39809 0.19555 0.43301 0.16063 0.43301 0.07682 0.23746 7e-3 0.36317-0.10476 0.62158-0.02794 0.04889 0.1327 0.13968 0.15365 0.16762 0.06286 0.16762-0.03492 0.07682-0.10476 0.03492-0.18857 0.06286-0.07682 0.12571 0.07682 0.03492 0.11174-0.02095 0.28635-0.16762 0.20254 0.09778 0.16762-0.0419 0.26539 0.10476 0.13968-0.05587 0.15365-0.15365 0.07682 0.11873 0.10476 0.32127 0.0419-0.06286 0.1746 0.05587 0.18159-0.10476 0.24444-0.03492 0.20952-0.19555 0.16063-0.15365 0.18159-7e-3 0.12571-0.11873 0.23746-0.12571-7e-3 -0.18158 0.04889-0.14666 0.20952 0.0342 0.2598z" fill="none" stroke="#96a2ed" stroke-width=".075" name="L2"/><path d="m-67.781-42.607 0.07299-0.14405 0.02963-0.40002 0.40989-1.047 0.79509-1.1457 1.6001 1.1062 0.43458 0.03951 0.50866-0.02963v0.27162l-0.07902 0.10371-0.09383 0.13828 0.05432 0.15803 0.16297 0.01975 0.08889-0.05926 0.08889 0.41977-0.05926 0.08395-0.08889 0.25186-0.14815 0.17778-0.10865-0.02963-0.27655-0.0049-0.07408 0.09383-0.0071 0.32416-0.12571-0.07682-0.06286 0.07682-0.03492 0.18857-0.07682 0.10476-0.16762 0.03492-0.16762-0.06286-0.13968-0.15365-0.04889-0.1327-0.62158 0.02794-0.36317 0.10476-0.23746-7e-3 -0.43301-0.07682-0.43301-0.16063z" fill="none" stroke="#96a2ed" stroke-width=".075" name="L3"/><path d="m-63.93-44.228-0.50866 0.02963-0.43458-0.03951-1.6001-1.1062 0.56298-0.52348 0.43458-1.1556 0.56792 0.05926 0.07902-0.09877 0.09383 0.0049 0.01975-0.05926 0.12346 0.01482 0.07408 0.09383 0.01975 0.07408 0.29631 0.05432 0.09877-0.0099 0.03457 0.10371 0.07408 0.1926 0.07902 0.01975-0.01975-0.09877-0.01481-0.15803-0.03457-0.12346 0.0099-0.13828 0.06914-0.02963 0.13828 0.06914 0.2568 0.05926 0.10865 0.11358 0.0099-0.07901 0.11358 0.03951 0.05432 0.07408 0.08395 0.01482 0.07902 0.04939 0.0049 0.1284-0.08889 0.1284-0.1284 0.04939-0.07408 0.18272-0.17285-0.11852-0.2568 0.10371-0.09877 0.23211-0.07408 0.12346 0.04445 0.16297 0.01481 0.1284 0.05926 0.2568-0.08395 0.11358-0.08889 0.05926v0.16297l0.04445 0.12346-0.09383 0.16297-0.05432 0.15309-0.02469 0.28149z" fill="none" stroke="#96a2ed" stroke-width=".075" name="L4"/><path d="m-66.725-25.061 1.1062 1.3531 0.49546 1.1961-4.8709-0.81093-1.7976-0.41483-0.89866-0.51497-0.30071-0.26539v-5.8526l0.09729-0.3631h4.743l-0.27095 0.65413v0.98007l0.0474 0.44319 0.19754 0.66175z" fill="none" stroke="#96a2ed" stroke-width=".075" name="1S"/><path d="m-72.894-30.734 1.0694-3.946 0.10476-0.12571 0.09079-0.71237 1.3549-2.1092 0.52678-1.0672 0.19828 0.08213-0.0403 0.30608 0.12346 0.12346h0.05432l0.08889-0.14322 0.08921-0.0066 2.8632 2.6763 0.36936-0.48136 0.48322-0.27899 0.23016-0.0303 0.27935-0.02096 0.41904 0.04889-0.10476 2.2489 0.18158 1.3828-0.66348 0.23047-1.0546 0.89396-1.4457 0.83809-0.47492 0.09086z" fill="none" stroke="#96a2ed" stroke-width=".075" name="1N"/><path d="m-64.59-36.419 0.79618 0.01397 0.1327-0.02794 0.86602-1.1943 0.4819-0.41206 0.55174-0.29333-0.22349-0.45396-0.41904-0.32825-0.16762-0.06286-0.14666-0.11873-0.16762-0.20254-0.22349-0.57269 0.01397-0.22349 0.11873-0.23746 0.04889-0.4819 0.09778-0.25841-0.33523-0.02793-0.12571 0.16063-0.23047 0.11873-0.08381 0.12571-0.14666 0.02793-0.40508-0.25143-0.13968-0.02793-0.16761 0.04191-0.05587 0.15365-0.15365 0.07682 0.11873 0.10476 0.32127 0.0419-0.06286 0.1746 0.05587 0.18159-0.10476 0.24444-0.03492 0.20952-0.19555 0.16063-0.15365 0.18159-7e-3 0.12571-0.11873 0.23746-0.12571-7e-3 -0.18158 0.04889-0.14666 0.20952 0.0342 0.2598 0.30803 0.14528-0.03492 0.36317h-0.25143v0.38412h0.24444l7e-3 0.29333 0.18158 0.1746-0.18025 0.6727-0.1061 0.1165-0.18158 0.10476 0.27934-0.02096z" fill="none" stroke="#96a2ed" stroke-width=".075" name="2"/><path d="m-62.83-41.273-0.33523-0.02793-0.12571 0.16063-0.23047 0.11873-0.08381 0.12572-0.14666 0.02793-0.40508-0.25143-0.13968-0.02793-0.16761 0.04192-0.10476-0.13968 0.0419-0.26539-0.09778-0.16762 0.16762-0.20254 0.02095-0.28635-0.03492-0.11174 0.0071-0.32412 0.07408-0.09383 0.27655 0.0049 0.10865 0.02963 0.14815-0.17778 0.08889-0.25186 0.05926-0.08395-0.08889-0.41977-0.08889 0.05926-0.16297-0.01975-0.05432-0.15803 0.17285-0.24198-1e-6 -0.27162 0.44427-0.02759 0.05587-0.05587h0.24444l0.37015 0.0419 0.28634-0.11873 0.03492-0.07682h0.04889l0.18857 0.08381-0.06286 0.29333z" fill="none" stroke="#96a2ed" stroke-width=".075" name="3S"/><path d="m-62.257-44.381-0.18857-0.08381-0.08381 0.07682-0.28634 0.11873-0.37015-0.0419h-0.24444l-0.05587 0.05587-0.44426 0.02759-0.20245-0.11857 0.02469-0.28149 0.05432-0.15309 0.09383-0.16297-0.04445-0.12346v-0.16297l0.08889-0.05926 0.08395-0.11358-0.05926-0.2568-0.01481-0.1284-0.04445-0.16297 0.07408-0.12346 0.09877-0.23211 0.2568-0.10371 0.17285 0.11852 0.07408-0.18272 0.1284-0.04939 0.08889-0.1284v-0.07161l0.19871-0.05238 0.0454-0.12222 0.71237 0.20952 0.05936 0.0419 0.12222 0.0454-0.42952 0.85205-7e-3 0.20952 0.25841 0.55872-0.01397 0.16762z" fill="none" stroke="#96a2ed" stroke-width=".075" name="3N"/><path d="m-65.476-47.023 0.09036-0.2565 1.0406-1.0127 1.1384-0.26539 0.62158-0.42603 0.49587-0.78221 1.1594-0.76126 1.5854-0.28635 1.2152 0.58666 0.64952 0.39809-0.62856 1.0057 0.07682 0.26539v0.15365l-0.11873 0.22349 0.12571 0.34222-0.02095 0.37714-0.13968 0.39111-0.10476 0.29333v0.25841l-0.68444 0.6984-0.32825 0.06984-0.16762 0.02794v0.12571l-0.11873 0.05587-0.11174-7e-3 -0.23047 0.04889-0.2165-0.02095-0.18857-0.11873-0.18158-0.19555-0.10476-7e-3 -0.10476 0.06286-0.02794 0.08381-0.56571 0.13968-0.23047 7e-3 -0.25142-0.03492-0.41836-0.41836 0.30312-0.60131-0.12222-0.0454-0.05936-0.0419-0.71237-0.20952-0.0454 0.12222-0.19871 0.05238-0.0049-0.05679-0.07902-0.04939-0.08395-0.01482-0.05432-0.07408-0.11358-0.03951-0.0099 0.07901-0.10864-0.11358-0.2568-0.05926-0.13828-0.06914-0.06914 0.02963-0.0099 0.13828 0.03457 0.12346 0.01481 0.15803 0.01975 0.09877-0.07902-0.01975-0.10865-0.29631-0.09877 0.0099-0.29631-0.05432-0.01975-0.07408-0.07408-0.09383-0.12346-0.01482-0.01975 0.05926-0.09383-0.0049-0.07902 0.09877z" fill="none" stroke="#96a2ed" stroke-width=".075" name="4"/><path d="m-62.221-46 0.41835 0.41835 0.4819 0.02792 0.56571-0.13968 0.02794-0.08381 0.10476-0.06286 0.10476 7e-3 0.18158 0.19555 0.18857 0.11873 0.2165 0.02095 0.23047-0.04889 0.11174 7e-3 0.11873-0.05587v0.30031l0.44698 0.6984 0.04889 0.16762 0.12571 0.12571 0.10476 0.23047 0.10476 0.15365 0.08381 0.3073 0.01397 0.43999-0.16762 0.82412 0.02794 0.48888 0.32825 0.36317 0.25841 0.20254 0.41904 0.16762 0.42603 0.06984 0.33523 0.31428-0.44698 0.3911-0.62158 0.76824-0.13968 0.06286-0.09079 0.18159-0.02794 0.13968 0.0419 0.20254 0.08381 0.22349 0.05587 0.18857v0.22349l-0.09778 0.13968-0.16063-0.10476-0.18158-0.23047-0.34222-0.3073-0.53777-0.30031-0.33523-0.08381-0.29333-7e-3 -0.30031 0.06286-0.3073 0.11873-0.29333 0.18857-0.11174 0.10476-0.74031 0.44697-0.22349-0.45396-0.41904-0.32825-0.16762-0.06286-0.31428-0.32126-0.22349-0.57269 0.01397-0.22349 0.11873-0.23746 0.04889-0.4819 0.09778-0.25841 0.57267-3.1079 0.14666-0.43301 0.01397-0.16762-0.25841-0.55872 7e-3 -0.20952z" fill="none" stroke="#96a2ed" stroke-width=".075" name="5"/><path d="m-58.681-41.86 0.71636-0.57528 0.5136-0.46422 0.33582-0.11852 0.26668-0.01975 0.48397 0.09877h0.5136l0.642-0.18766h1.1951l-0.09877-0.81978 0.0099-0.33582-0.17778-0.72102-0.06914-0.46422v-1.0963l-0.03951-0.33582-0.28643-0.84942-0.05926-1.0865-0.1284-0.31606 0.02963-0.16791 0.33582-0.2568-0.09877-0.43458-1.1457 0.50372-1.5704-0.21729-0.16699-0.10434-0.62856 1.0057 0.07682 0.26539v0.15365l-0.11873 0.22349 0.12571 0.34222-0.02095 0.37714-0.24444 0.68444v0.25841l-0.68444 0.6984-0.49587 0.09778v0.12571l-1e-6 0.30031 0.44698 0.6984 0.04889 0.16762 0.12571 0.12571 0.10476 0.23047 0.10476 0.15365 0.08381 0.3073 0.01397 0.43999-0.16762 0.82412z" fill="none" stroke="#96a2ed" stroke-width=".075" name="6"/><path d="m-58.681-41.86 1.23-1.0395 0.33582-0.11852 0.26668-0.01975 0.48397 0.09877h0.5136l0.642-0.18766h1.1951l0.02963 0.54323 0.23705 1.1161 0.24692 0.80003 0.03951 0.40496 0.07901 0.33581 0.35557 0.54323 0.29631 0.24692 0.24692 0.14815 0.20742 0.15803 0.13828 0.29631-0.15803 0.03951-0.10865 0.15803-0.06914 0.20742-0.21729 0.1284-0.59262 0.21729-0.27655 0.17778-0.1284 0.33581-0.24692 0.23705-0.63212 0.31606-0.3852 0.03951-2.5878-1.3828-0.31606-0.03951-0.13828-0.01976-0.16294-0.10225 0.09778-0.13968v-0.22349l-0.05587-0.18857-0.08381-0.22349-0.0419-0.20254 0.02794-0.13968 0.09079-0.18159 0.13968-0.06286 0.62158-0.76824 0.44698-0.39111-0.33523-0.31428-0.42603-0.06984-0.41904-0.16762-0.25841-0.20254z" fill="none" stroke="#96a2ed" stroke-width=".075" name="7"/><path d="m-68.151-30.734 0.47492-0.09086 1.4457-0.83809 1.0546-0.89396 0.66348-0.23047 0.33546-0.18545 1.1161-0.15803 0.32594 0.04939h0.34569l0.01394-0.13193 0.1327-0.09079 0.90094-0.02794 0.32127 0.2654 1.3479 7e-3 0.50285-0.04889 0.44698-0.08381 1.9136 0.48888 0.50983-0.03492 0.20254-0.04889h0.41904l0.85205 0.6146-1.5086 2.4374-0.49587 0.53079-2.626 2.2977-2.2628 1.5086-0.48888 0.26539-0.88697 0.60761-1.2013 1.334-0.46793 0.81713-0.3652-0.15127-0.48994-1.1828-1.1062-1.3531-1.4519-2.9334-0.19754-0.66175-0.0474-0.44319v-0.98007z" fill="none" stroke="#96a2ed" stroke-width=".075" name="8S"/><path d="m-64.59-36.419 0.79618 0.01397 0.1327-0.02794 0.86602-1.1943 0.4819-0.41206 0.55174-0.29333 0.74031-0.44698 0.11174-0.10476 0.29333-0.18857 0.3073-0.11873 0.30031-0.06286 0.29333 7e-3 0.33523 0.08381 0.53777 0.30032 0.34222 0.3073 0.18158 0.23047 0.16063 0.10476 0.16293 0.10225 0.45434 0.05927 2.5878 1.3828 0.3852-0.03951 0.63212-0.31606 0.24692-0.23705 0.1284-0.33581 0.10259 0.13842-0.0419 0.20952-0.10476 0.2165-0.04889 0.60761-0.03492 0.11873-0.08381 0.06286-0.1746 0.31428-0.28634 0.12571-0.1746 0.3073-0.01397 0.13968 0.04889 0.14667 0.11873 0.76126-0.14666 0.72634v0.32126l-0.10476 0.20254-0.06286 0.69142-0.06286 0.13968-0.09778 0.08381-0.09777 0.11875-0.85205-0.6146h-0.41904l-0.20254 0.04889-0.50983 0.03492-1.9136-0.48888-0.44698 0.08381-0.50285 0.04889-1.3479-7e-3 -0.32127-0.2654-0.90094 0.02794-0.1327 0.09079-0.01394 0.13193h-0.34569l-0.32594-0.04939-1.1161 0.15803-0.33546 0.18545-0.18158-1.3828z" fill="none" stroke="#96a2ed" stroke-width=".075" name="8N"/><path d="m-64.764-22.374 0.46793-0.81713 1.2013-1.334 0.88697-0.60761 0.48888-0.26539 2.0134-1.3422h5.0597l4.652 4.9977-7.2204 3.6917-0.97776 0.40507h-1.0755l-2.626-3.4781z" fill="none" stroke="#96a2ed" stroke-width=".075" name="9"/><path d="m-54.35-46.563 0.32592-0.2568 0.28643-0.13828 0.33582-0.11852 0.54323-0.01975 0.42471 0.07902 0.76052 0.39508 0.44446 0.23705 0.30618 0.24692 0.40495 0.36545 0.14815 0.0099 0.13828-0.06914 0.2568-0.03951 0.41483 0.19754 0.3852-0.0099 0.29631-0.06914 0.28643 0.09877-0.05926 0.15803-0.41483 0.84942-0.10865 0.08889-0.07901 0.18766-0.0099 0.09877 0.02963 0.08889-0.0099 0.10865 0.08889 0.19754 0.05926 0.07902 0.02963 0.24692-0.36545-0.1284-0.13828-0.14815-0.09877-0.29631-0.15803-0.29631-0.11852-0.17778-0.10865-0.11852h-0.15803l-0.16791 0.37532-0.2568 0.21729-0.11852 0.21729-0.16791 0.01975-0.09877 0.20742-0.15803-0.02963-0.09877-0.10865-0.47409-0.1284-0.33582 0.06914-0.56298 0.29631-0.69138 0.30618-0.67163 0.14816-0.09877-0.81978 0.0099-0.33582-0.17778-0.72102-0.06914-0.46422z" fill="none" stroke="#96a2ed" stroke-width=".075" name="10S"/><path d="m-54.35-46.563-0.03951-0.33582-0.28643-0.84942-0.05926-1.0865-0.1284-0.31606 0.02963-0.16791 0.33582-0.2568-0.09877-0.43458 2.2717-1.442 0.98769-0.86917h3.5853l1.1976 0.46101-0.37778 0.82299-0.08889 0.11852v0.20742l-0.11852 0.04938-0.10865 0.23705-0.06914 0.01975-0.07901 0.10865-0.06914 0.15803-0.1284 0.04938-0.54323 0.40495-0.06914 0.08889-0.04938 0.18766-0.26668 0.2568 0.0099 0.33582 0.13828 0.27655 0.03951 0.37532 0.1284 0.37532 0.0099 0.61237-0.14815 0.33582-0.24692 1.1852-0.28643-0.09877-0.29631 0.06914-0.3852 0.0099-0.41483-0.19754-0.2568 0.03951-0.13828 0.06914-0.14815-0.0099-0.71114-0.61237-1.205-0.63212-0.42471-0.07902-0.54323 0.01975-0.33582 0.11852-0.28643 0.13828z" fill="none" stroke="#96a2ed" stroke-width=".075" name="10N"/><path d="m-46.554-51.861 1.0346 0.39828 0.53335 0.2568 1.1951 0.7704 1.7877 2.1235-1.1951 0.80991-0.7704 0.642-0.10865 0.04938-0.07901 0.26668-0.61237 0.90868-0.21729 0.09877-0.13828 0.13828-0.15803 0.06914-0.13828 0.21729-0.04938 0.13828-0.11852 0.01975-0.21729 0.18766-0.03951 0.06914-0.2568 0.10865-0.41483 0.18766-0.07901 0.17778v0.14815l-0.14815 0.1284-0.11853 0.02963-0.18766-0.03951-0.19754 0.22717-0.07902 0.17778 0.02963 0.07902 0.44446 0.28643 0.23704 0.18766 0.07901 0.15803-0.47409 0.35557-0.13828 0.26668-0.22717 0.16791-0.19754 0.0099-0.45434 0.29631-0.31606-0.59262-0.11852-0.11852-0.16791-0.05926-0.19754-0.17778-0.2568-0.13828-0.09877-0.26668 0.11848-0.45434-0.02963-0.24692-0.05926-0.07902-0.08889-0.19754 0.0099-0.10865-0.02963-0.08889 0.0099-0.09877 0.07901-0.18766 0.10865-0.08889 0.41483-0.84942 0.05926-0.15803 0.24698-1.1852 0.14815-0.33582-0.0099-0.61237-0.1284-0.37532-0.03951-0.37532-0.13828-0.27655-0.0099-0.33582 0.26668-0.2568 0.04938-0.18766 0.06914-0.08889 0.54323-0.40495 0.1284-0.04938 0.06914-0.15803 0.07901-0.10865 0.06914-0.01975 0.10864-0.23705 0.11852-0.04938v-0.20742l0.08889-0.11852z" fill="none" stroke="#96a2ed" stroke-width=".075" name="11W"/><path d="m-46.537-42.84-0.07901-0.15803-0.23705-0.18766-0.44446-0.28643-0.02963-0.07902 0.07902-0.17778 0.19754-0.22717 0.18766 0.03951 0.11852-0.02963 0.14815-0.1284v-0.14815l0.07901-0.17778 0.67163-0.29631 0.03951-0.06914 0.21729-0.18766 0.11852-0.01975 0.04938-0.13828 0.13828-0.21729 0.15803-0.06914 0.13828-0.13828 0.21729-0.09877 0.61237-0.90868 0.07901-0.26668 0.10865-0.04938 0.7704-0.642 1.1951-0.80991 0.11215 0.16641 0.82615 0.54472 0.62224 0.35557 0.3852 0.0099-0.0099 0.2568-0.21729 0.81978-0.34569 0.7704-0.08889 0.05926-0.36544 0.43458-0.19754 0.08889-0.09877 0.04938-0.14815 0.14815-0.04938 0.15803v0.15803l-1.6745-0.03951-1.417 0.06914-0.16791 0.26668 0.07901 0.31606 0.02963 0.48397-0.82966-0.16791-0.42471 0.14815z" fill="none" stroke="#96a2ed" stroke-width=".075" name="11E"/><path d="m-48.028-41.744 0.45434-0.29631 0.19754-0.0099 0.22717-0.16791 0.13828-0.26668 0.47409-0.35557 0.55308-0.37531 0.42471-0.14815 0.82966 0.16791-0.02963-0.48397-0.07901-0.31606 0.16791-0.26668 1.417-0.06914 1.6745 0.03951-0.13826 0.44445-0.06914 0.09877-0.04938 0.10865-0.28643 0.17778-0.03951 0.17778 0.05926 0.11852-0.04938 0.19754-0.05926 0.07902-0.0099 0.20742-0.20742 0.14815-0.14815 0.20742-0.06914 0.47409 0.03951 0.35557-0.03951 0.58274-0.13828 0.39508-0.23705 0.45434 0.01975 0.23705 0.07901 0.24692-0.13828 0.41483v0.30618l0.02963 0.14815 0.05926 0.04939-0.30618 0.5136-0.01975 0.16791-0.0099 0.61237-0.03951 0.28643-0.1284 0.34569-0.08889 0.50372-0.65188-0.23705h-0.23705l-0.36545 0.13828-0.13828 0.01975-1.0568-0.10865-0.642 0.09877-0.06914-0.08889-0.11852-0.08889-0.09877-0.33582-0.09877-0.09877 0.0099-0.58274-0.07901-0.08889v-0.18766l0.17778-0.07902 0.04939-0.42471-0.11852-0.21729-0.01975-0.1284-0.16791-0.08889-0.0099-0.10865-0.17778-0.20742-0.50372-0.30618-0.10865-0.16791v-0.24692l-0.07901-0.19754 0.06916-0.86916z" fill="none" stroke="#96a2ed" stroke-width=".075" name="12"/><path d="m-52.137-38.534-0.13828-0.29631-0.20742-0.15803-0.24692-0.14816-0.29631-0.24692-0.25484-0.38933 0.2501-0.17373 7e-3 -0.1746 0.04889-0.1746 0.41206-0.09777 0.23047-0.25841 0.23746-0.14666 0.94284-0.02794 0.46095-0.07682 0.06984-0.06984 0.11174-0.44698 0.20254-0.11873 0.25142-0.05587-0.06984-0.1746 0.1327-0.20254 0.23746-0.16762 0.1746 7e-3 0.27936 0.19555 0.32825-0.06984h0.11873l0.05587 0.07682 0.18158 0.01397 0.09079 0.08381 0.08381-7e-3 0.14667-0.08381 0.26728 0.17898 0.02962 0.90867-0.06916 0.86916 0.07901 0.19754v0.24692l0.10865 0.16791 0.50372 0.30619 0.17778 0.20742 0.0099 0.10865 0.16791 0.08889 0.01976 0.1284 0.11852 0.21729-0.04939 0.42471-0.17778 0.07902v0.18766l0.07901 0.08889-0.0099 0.58274 0.09877 0.09877 0.09877 0.33581 0.11852 0.08889 0.06914 0.08889-0.31316 0.18138-0.5238 0.1746-0.18857-7e-3 -0.19555-0.11174-0.38412 0.01397-0.26539-0.23047-0.74729-0.36317-0.27238-0.16762-0.24444-0.03492-0.64253-0.51682-0.97776-1.0406-0.23746-0.1327-0.28634-0.03492z" fill="none" stroke="#96a2ed" stroke-width=".075" name="13S"/><path d="m-53.281-39.772-0.10073-0.1539-0.07901-0.33581-0.03951-0.40496-0.24692-0.80003-0.23705-1.1161-0.02963-0.54323 0.67158-0.14816 0.69138-0.30618 0.56298-0.29631 0.33582-0.06914 0.47409 0.1284 0.09877 0.10865 0.15803 0.02963 0.09877-0.20742 0.16791-0.01975 0.11852-0.21729 0.2568-0.21729 0.16791-0.37532h0.15803l0.10865 0.11852 0.27655 0.47409 0.09877 0.29631 0.13828 0.14815 0.36545 0.12842-0.11848 0.45434 0.09877 0.26668 0.2568 0.13828 0.19754 0.17778 0.16791 0.05926 0.11852 0.11852 0.31607 0.59262-0.26728-0.17898-0.14667 0.08381-0.08381 7e-3 -0.09079-0.08381-0.18158-0.01397-0.05587-0.07682h-0.11873l-0.32825 0.06984-0.27936-0.19555-0.1746-7e-3 -0.23746 0.16762-0.1327 0.20254 0.06984 0.1746-0.25142 0.05587-0.20254 0.11873-0.11174 0.44698-0.06984 0.06984-0.46095 0.07682-0.94284 0.02794-0.23746 0.14666-0.23047 0.25841-0.41206 0.09777-0.04889 0.1746-7e-3 0.1746z" fill="none" stroke="#96a2ed" stroke-width=".075" name="13N"/><path d="m-56.334-29.735 1.5086-2.4374 0.19554-0.20255 0.06286-0.13968 0.06286-0.69142 0.10476-0.20254v-0.32126l0.14666-0.72634-0.11873-0.76126-0.04889-0.14667 0.01397-0.13968 0.1746-0.3073 0.28634-0.12571 0.1746-0.31428 0.08381-0.06286 0.08381-0.72634 0.10476-0.2165 0.0419-0.20952-0.10259-0.13842 0.27656-0.17779 0.59262-0.21729 0.21729-0.1284 0.06914-0.20742 0.10865-0.15803 0.15803-0.03951 0.20286-0.05758 0.28634 0.03492 0.23746 0.1327 0.97776 1.0406 0.64253 0.51682 0.24444 0.03492 0.27238 0.16762 0.74729 0.36317 0.26539 0.23047 0.38412-0.01397 0.19555 0.11174 0.18857 7e-3 0.5238-0.1746 0.31314-0.18139 0.642-0.09877 1.0568 0.10865 0.13828-0.01975 0.36545-0.13828h0.23705l0.65188 0.23705-0.05928 0.3928-0.07682 0.09079v0.53777l0.0419 0.13968 0.18158 0.27238-0.01397 0.12571-0.05587 0.09079 0.02095 0.11873 0.11873 0.14666-0.02095 0.32126-0.20254 0.25143 7e-3 0.27936-0.04889 0.18857-0.26539 0.22349-0.10476 0.16063 0.1746 1.4527 0.58666 0.37714 0.80316 1.313-2.0184 2.0324-2.7936 1.9206-2.8914-0.86602-2.5212-0.98475-1.299-0.6565z" fill="none" stroke="#96a2ed" stroke-width=".075" name="14"/><path d="m-42.478-29.749-0.80316-1.313-0.58666-0.37714-0.1746-1.4527 0.10476-0.16063 0.26539-0.22349 0.04889-0.18857-7e-3 -0.27936 0.20254-0.25143 0.02096-0.32126-0.11873-0.14666-0.02096-0.11873 0.05587-0.09079 0.01397-0.12571-0.18158-0.27238-0.0419-0.13968v-0.53777l0.07682-0.09079 0.05928-0.39281 0.27107 0.21728 0.49384 0.65188 0.39508 0.04938 0.74077-0.27655h0.39508l2.0248-0.46422 1.5704-0.75064 0.71114-0.2568 1.1852 0.07902 0.94818-0.72101 0.90868 1.0568 1.1358 0.33581 0.60249 0.46421 0.2568 0.05926 0.17778-0.05926 0.09877-0.08889 0.06914 0.97782v0.55311l-0.07901 0.26668-0.19754 0.21729-0.43459 0.27655-0.62224 0.20742-1.1062 0.15803-1.0766 0.19754-5.0877 1.8865-0.87999 0.46095z" fill="none" stroke="#96a2ed" stroke-width=".075" name="15"/><path d="m-43.564-36.232 0.08889-0.50372 0.1284-0.34569 0.03951-0.28643 0.0099-0.61237 0.01974-0.16791 0.30619-0.5136-0.05926-0.04939-0.02963-0.14815v-0.30618l0.13827-0.41483-0.07901-0.24692-0.01974-0.23705 0.23704-0.45434 0.13828-0.39508 0.03951-0.58274-0.03951-0.35557 0.06914-0.47409 0.14815-0.20742 0.20742-0.14815 0.0099-0.20742 0.05926-0.07902 0.04938-0.19754-0.05926-0.11852 0.03951-0.17778 0.28643-0.17778 0.04938-0.10865 0.06914-0.09877 0.13826-0.44445 0.82322 0.08549 0.45396 0.08381 0.63555 0.28635 0.31428 0.22349 1.2362 1.3549 0.41904 0.36317 0.28635 0.11174 0.60761 0.15365 0.32126 0.13968-0.18426 0.34844v0.16791l0.05926 0.28643v0.94818l-0.55311 1.0667 0.83954 0.43458 0.56298 0.17778 0.36545-0.07901 0.11852-0.07901 0.15803 0.17778 0.28643 0.33582-0.94818 0.72101-1.1852-0.07902-0.71114 0.2568-1.5704 0.75064-2.0248 0.46422h-0.39508l-0.74077 0.27655-0.39508-0.04938-0.49384-0.65188z" fill="none" stroke="#96a2ed" stroke-width=".075" name="16S"/><path d="m-41.579-44.292 6e-6 -0.15803 0.04938-0.15803 0.14815-0.14815 0.29631-0.13827 0.36545-0.43458 0.08889-0.05926 0.34569-0.7704 0.2173-0.81978 0.0099-0.2568 0.87351 0.03948h0.42471l0.42471 0.09877 2.5976 2.6371 0.60249 0.52348-1.3467 2.4467-0.32126-0.13968-0.60761-0.15365-0.28635-0.11174-0.41904-0.36317-1.2362-1.3549-0.31428-0.22349-0.63555-0.28635z" fill="none" stroke="#96a2ed" stroke-width=".075" name="16S"/><path d="m-38.335-47.097 0.8757-0.25925 0.99173-0.18158 0.40507-0.01397 0.54476 0.32127 1.6762 0.36317 0.36317-0.05587 0.71237 0.32127 0.68444-0.0419 0.75427-0.23746h0.37038l0.28643-0.04776 0.80003 0.0099 0.30618 0.19754 0.78028 0.26668 0.09877 0.33582v0.34569l-0.18766 0.58274-0.24692 0.62225-0.17778 0.26668-3.9113 0.80003-0.79015 0.02963-0.36544-0.05926-0.44446-0.16791-0.32594-0.23705-0.60249-0.52348z" fill="none" stroke="#96a2ed" stroke-width=".075" name="17"/><path d="m-33.92-36.647-0.90868-1.0568-0.44446-0.51359-0.11852 0.07901-0.36545 0.07901-0.56298-0.17778-0.83954-0.43458 0.55311-1.0667v-0.94818l-0.05926-0.28643v-0.16791l0.18426-0.34844 1.3467-2.4467 0.32594 0.23705 0.44446 0.16791 0.36544 0.05926 0.79015-0.02963 3.9113-0.80003-2.8818 6.5416 0.06984 0.22349-0.54476 0.76824-0.12988 0.45705z" fill="none" stroke="#96a2ed" stroke-width=".075" name="18W"/><path d="m-29.297-44.302 2.5099 1.4712 3.0171 2.7377 1.0197 0.6984v9.3586h-6.7466l-1.8298-0.47491-1.8298-1.313-0.74031-1.0755-0.10841-0.38174 1.0933-0.15618 0.62224-0.20742 0.43459-0.27655 0.19754-0.2173 0.07901-0.26668v-0.55311l-0.06914-0.97781-0.09877 0.08889-0.17778 0.05926-0.2568-0.05926-0.60249-0.46421 0.12988-0.45705 0.54476-0.76824-0.06984-0.22349z" fill="none" stroke="#96a2ed" stroke-width=".075" name="18E"/><path d="m-26.55-48.46 2.0114-0.58666 1.4247 0.3492 1.0476 0.37714 0.99174 0.39111 0.51682 0.36317 1.3409 1.5365 0.36317 0.92189-0.60063-0.01397-0.23746 0.05587-0.29333 0.02794-0.36317 0.09778-0.37714 0.19555-0.44698 0.39111-1.2082 0.43999-0.35619 0.04889-0.09778-0.05587h-0.11174l-0.13968 0.07682-0.12571 0.09778-0.51682 0.25142-0.3073-0.09778h-0.3073l-0.1327-0.07682-0.19555-7e-3 -0.1327-0.51682-0.26539-0.27238-0.58666-0.14666-0.27238-0.24444-0.43999-0.20952-1.1803-0.0419-0.22349-0.24444-0.3073-0.67745-0.1327-0.95681z" fill="none" stroke="#96a2ed" stroke-width=".075" name="19N"/><path d="m-27.549-45.107 0.40508 1.0965 0.44698 0.94284 1.4946 1.3689 1.3568 1.0518 4.5039-1.2149 0.5136-1.6494 0.05926-0.47409-0.0099-0.80991-0.07513-0.31171-0.60063-0.01397-0.23746 0.05587-0.29333 0.02794-0.36317 0.09778-0.37714 0.19555-0.44698 0.39111-1.2082 0.43999-0.35619 0.04889-0.09778-0.05587h-0.11174l-0.13968 0.07682-0.12571 0.09778-0.51682 0.25142-0.3073-0.09778h-0.3073l-0.1327-0.07682-0.19555-7e-3 -0.1327-0.51682-0.26539-0.27238-0.58666-0.14666-0.27238-0.24444-0.43999-0.20952z" fill="none" stroke="#96a2ed" stroke-width=".075" name="19S"/></g></svg>
